<svg width="24" height="20" viewBox="0 0 24 20" fill="none" xmlns="http://www.w3.org/2000/svg">
<path fill-rule="evenodd" clip-rule="evenodd" d="M24 4.20513C24 1.8827 22.1173 0 19.7949 0H4.20513C1.8827 0 0 1.8827 0 4.20513V15.6923C0 18.0147 1.8827 19.8974 4.20513 19.8974H19.7949C22.1173 19.8974 24 18.0147 24 15.6923V4.20513ZM17.5419 11.358L17.6373 11.2748C17.9696 11.0227 18.4378 11.0229 18.7717 11.2902L22.7682 14.4913L22.7692 15.6923C22.7692 17.335 21.4376 18.6667 19.7949 18.6667L4.79487 18.6656L8.98095 14.4802L9.06928 14.4024C9.40696 14.141 9.88782 14.1436 10.224 14.4233L11.7539 15.6962L11.8609 15.7751C12.3021 16.0623 12.8926 16.0073 13.2733 15.6267L17.5419 11.358ZM19.7949 1.23077H4.20513C2.56244 1.23077 1.23077 2.56244 1.23077 4.20513V15.6923C1.23077 16.9902 2.06206 18.0939 3.22124 18.5001L8.11067 13.6099C8.85417 12.8664 10.0171 12.7738 10.865 13.3657L11.0112 13.4772L12.4692 14.6902L12.403 14.7564C12.4405 14.7189 12.5004 14.7162 12.5411 14.7501L12.4692 14.6902L16.6716 10.4877C17.4049 9.75454 18.5481 9.65302 19.3948 10.2222L19.541 10.3296L22.7682 12.9138L22.7692 4.20513C22.7692 2.56244 21.4376 1.23077 19.7949 1.23077ZM7.38462 4.41026C8.91402 4.41026 10.1538 5.65009 10.1538 7.17949C10.1538 8.70889 8.91402 9.94872 7.38462 9.94872C5.85521 9.94872 4.61539 8.70889 4.61539 7.17949C4.61539 5.65009 5.85521 4.41026 7.38462 4.41026ZM5.84616 7.17949C5.84616 6.32982 6.53495 5.64103 7.38462 5.64103C8.23429 5.64103 8.92308 6.32982 8.92308 7.17949C8.92308 8.02916 8.23429 8.71795 7.38462 8.71795C6.53495 8.71795 5.84616 8.02916 5.84616 7.17949Z" fill="#007AFF"/>
</svg>
