<svg width="24" height="24" viewBox="0 0 24 24" fill="none" xmlns="http://www.w3.org/2000/svg">
<path fill-rule="evenodd" clip-rule="evenodd" d="M12 0C18.6274 0 24 5.37258 24 12C24 18.6274 18.6274 24 12 24C5.37258 24 0 18.6274 0 12C0 5.37258 5.37258 0 12 0ZM12 1.22553C6.04943 1.22553 1.22553 6.04943 1.22553 12C1.22553 15.1196 2.55131 17.9295 4.67018 19.8971L7.97536 18.9759C9.4989 18.4737 9.20889 15.8886 9.20296 15.8543C8.36802 15.3706 8.36803 14.1064 8.22593 13.9244L8.13458 13.8133L7.91731 13.5657C7.76565 13.3965 7.64355 13.2035 7.5557 12.9949L7.4963 12.8355L7.45114 12.7012C7.38491 12.5093 7.29476 12.2663 7.18067 11.9724C6.77275 10.9213 7.58455 10.8691 7.58859 10.8518C7.40213 10.5481 7.39182 8.94223 7.39182 8.93905C7.39182 6.50374 8.74692 5.18343 11.4571 4.97813L11.6211 4.96788L11.6215 4.96175L11.6722 4.96481L11.7236 4.96175L11.7232 4.96788L11.888 4.97813C14.5108 5.17681 15.8645 6.41972 15.9491 8.70686L15.9526 9.00199L15.9434 9.37992L15.9218 9.83225C15.8952 10.2578 15.8463 10.7056 15.7565 10.8518L15.8793 10.8864L15.9647 10.9212C16.1746 11.023 16.4322 11.2826 16.1645 11.9724L15.9849 12.4464L15.894 12.7012L15.8488 12.8355C15.7608 13.1055 15.6174 13.3542 15.4278 13.5657L15.2105 13.8133L15.1192 13.9244C14.9771 14.1064 14.9771 15.3706 14.1422 15.8543L14.129 16.0019C14.0907 16.5621 14.0564 18.543 15.3698 18.9759L19.2088 20.0078C21.3981 18.0356 22.7745 15.1786 22.7745 12C22.7745 6.04943 17.9506 1.22553 12 1.22553Z" fill="#007AFF"/>
</svg>
