<svg width="24" height="24" viewBox="0 0 24 24" fill="none" xmlns="http://www.w3.org/2000/svg">
<path fill-rule="evenodd" clip-rule="evenodd" d="M12 0C18.6274 0 24 4.47715 24 10C24 20.1196 14.3931 15.529 13.0732 18.1029C12.2601 19.7573 16.386 23.6102 12 23.6102C2.97964 23.6102 0 15.5228 0 10C0 4.47715 5.37258 0 12 0ZM5 7.5C3.89543 7.5 3 8.39543 3 9.5C3 10.6046 3.89543 11.5 5 11.5C6.10457 11.5 7 10.6046 7 9.5C7 8.39543 6.10457 7.5 5 7.5ZM19 7.5C17.8954 7.5 17 8.39543 17 9.5C17 10.6046 17.8954 11.5 19 11.5C20.1046 11.5 21 10.6046 21 9.5C21 8.39543 20.1046 7.5 19 7.5ZM9 2.5C7.89543 2.5 7 3.39543 7 4.5C7 5.60457 7.89543 6.5 9 6.5C10.1046 6.5 11 5.60457 11 4.5C11 3.39543 10.1046 2.5 9 2.5ZM15 2.5C13.8954 2.5 13 3.39543 13 4.5C13 5.60457 13.8954 6.5 15 6.5C16.1046 6.5 17 5.60457 17 4.5C17 3.39543 16.1046 2.5 15 2.5Z" fill="white"/>
</svg>
