<svg width="29" height="29" viewBox="0 0 29 29" fill="none" xmlns="http://www.w3.org/2000/svg">
<rect width="29" height="29" rx="6" fill="#3396FD"/>
<path fill-rule="evenodd" clip-rule="evenodd" d="M19 6.5C20.933 6.5 22.5 8.067 22.5 10V19C22.5 20.933 20.933 22.5 19 22.5H10C8.067 22.5 6.5 20.933 6.5 19V10C6.5 8.067 8.067 6.5 10 6.5H19ZM19 7.5H10C8.61929 7.5 7.5 8.61929 7.5 10V19C7.5 19.0847 7.50422 19.1685 7.51245 19.251L11.3417 15.4231C11.7322 15.0326 12.3653 15.0326 12.7559 15.4231L13.9784 16.6456L17.476 13.148C17.8665 12.7575 18.4997 12.7575 18.8902 13.148L21.5 15.758V10C21.5 8.61929 20.3807 7.5 19 7.5ZM14.5 11.5C14.5 10.3954 13.6046 9.5 12.5 9.5C11.3954 9.5 10.5 10.3954 10.5 11.5C10.5 12.6046 11.3954 13.5 12.5 13.5C13.6046 13.5 14.5 12.6046 14.5 11.5Z" fill="white"/>
</svg>
