<svg width="132" height="36" viewBox="0 0 132 36" fill="none" xmlns="http://www.w3.org/2000/svg">
<path fill-rule="evenodd" clip-rule="evenodd" d="M66 36C75.9411 36 84 27.9411 84 18C84 8.05887 75.9411 0 66 0C56.0589 0 48 8.05887 48 18C48 27.9411 56.0589 36 66 36Z" fill="#EDEDFF"/>
<path fill-rule="evenodd" clip-rule="evenodd" d="M69 12.25C70.1046 12.25 71 13.1454 71 14.25V22.25C71 23.3546 70.1046 24.25 69 24.25H59C57.8954 24.25 57 23.3546 57 22.25V14.25C57 13.1454 57.8954 12.25 59 12.25H69ZM77 13.25V23.25L72 20.25V16.25L77 13.25Z" fill="#007AFF"/>
<path fill-rule="evenodd" clip-rule="evenodd" d="M18 36C27.9411 36 36 27.9411 36 18C36 8.05887 27.9411 0 18 0C8.05887 0 0 8.05887 0 18C0 27.9411 8.05887 36 18 36Z" fill="#EDEDFF"/>
<path fill-rule="evenodd" clip-rule="evenodd" d="M18 10.5C22.9706 10.5 27 13.7459 27 17.75C27 21.7541 22.9706 25 18 25C17.081 25 16.1941 24.889 15.359 24.6828C14.2841 26.5805 11.8627 26.1442 11.8627 26.1442C12.6759 25.8788 13.1265 25.1276 13.2144 23.8907C10.6825 22.6081 9 20.3373 9 17.75C9 13.7459 13.0294 10.5 18 10.5Z" fill="#007AFF"/>
<path fill-rule="evenodd" clip-rule="evenodd" d="M114 36C123.941 36 132 27.9411 132 18C132 8.05887 123.941 0 114 0C104.059 0 96 8.05887 96 18C96 27.9411 104.059 36 114 36Z" fill="#EDEDFF"/>
<path fill-rule="evenodd" clip-rule="evenodd" d="M111.117 14.4238C111.335 14.2634 111.386 13.9593 111.232 13.737L108.746 10.1418C108.602 9.9339 108.328 9.86792 108.12 10.0117C107.285 10.5895 105.401 12.2341 106.17 14.916C107.146 18.3213 110.383 21.7919 110.383 21.7919C110.383 21.7919 115.067 26.1107 117.255 26.1107C118.479 26.1107 119.186 26.1183 120.628 24.6486C120.712 24.563 121.254 23.8778 121.541 23.5131C121.648 23.3776 121.646 23.1941 121.575 23.0369C121.164 22.1296 118.367 20.8344 117.379 20.4C117.174 20.3101 116.938 20.3718 116.799 20.5465L116.016 21.53C115.687 21.9427 115.098 22.0253 114.691 21.6892C114.133 21.2273 113.319 20.499 112.471 19.5475C111.515 18.476 110.576 17.2366 110.002 16.4513C109.683 16.0149 109.783 15.4074 110.219 15.0865L111.117 14.4238Z" fill="#007AFF"/>
</svg>
