<svg width="17" height="23" viewBox="0 0 17 23" fill="none" xmlns="http://www.w3.org/2000/svg">
<path fill-rule="evenodd" clip-rule="evenodd" d="M9.68041 0L10.2955 0.00806701L10.5998 0.00902813L16.9407 6.4596V20.8824C16.9407 22.0519 15.9926 23 14.8231 23H2.11759C0.948077 23 0 22.0519 0 20.8824V2.12662C0 0.957105 0.948077 0.00902813 2.11759 0.00902813L9.6794 0.00806701L9.68041 0ZM9.6794 1.21812L2.11759 1.21908C1.61637 1.21908 1.21005 1.6254 1.21005 2.12662V20.8824C1.21005 21.3836 1.61637 21.7899 2.11759 21.7899H14.8231C15.3243 21.7899 15.7307 21.3836 15.7307 20.8824V7.30971L11.798 7.26933C10.6285 7.26933 9.68041 6.32126 9.68041 5.15174L9.6794 1.21812ZM10.8905 5.15174V2.03076L14.8826 6.09153L11.8043 6.05932C11.2968 6.05928 10.8905 5.65296 10.8905 5.15174Z" fill="#007AFF"/>
</svg>
