<svg width="29" height="29" viewBox="0 0 29 29" fill="none" xmlns="http://www.w3.org/2000/svg">
<rect width="29" height="29" rx="6" fill="#FE8D35"/>
<path fill-rule="evenodd" clip-rule="evenodd" d="M19.5 12.75C19.5 9.02208 16.4779 6 12.75 6C9.02208 6 6 9.02208 6 12.75C6 16.4779 9.02208 19.5 12.75 19.5C14.1626 19.5 15.4739 19.0661 16.5578 18.3242L20.7123 22.4801L20.8138 22.5712C21.3046 22.9661 22.0245 22.9357 22.4801 22.4801C22.9682 21.9919 22.9682 21.2005 22.4801 20.7123L18.3242 16.5578C19.0661 15.4739 19.5 14.1626 19.5 12.75ZM8 12.75C8 10.1266 10.1266 8 12.75 8C15.3734 8 17.5 10.1266 17.5 12.75C17.5 15.3734 15.3734 17.5 12.75 17.5C10.1266 17.5 8 15.3734 8 12.75Z" fill="white"/>
</svg>
