<svg width="19" height="26" viewBox="0 0 19 26" fill="none" xmlns="http://www.w3.org/2000/svg">
<path fill-rule="evenodd" clip-rule="evenodd" d="M19 9.49999C19 4.25329 14.7467 0 9.49999 0C4.25329 0 0 4.25329 0 9.49999C0 12.3907 2.09848 16.6418 6.2845 22.3276L6.91199 23.1699L7.55401 24.013L8.22013 24.8701C8.7753 25.5776 9.79723 25.7009 10.5036 25.1466C10.6061 25.0662 10.6985 24.9738 10.7789 24.8713C16.2548 17.8931 19 12.8055 19 9.49999ZM1.21925 9.49999C1.21925 4.92667 4.92667 1.21925 9.49999 1.21925C14.0733 1.21925 17.7807 4.92667 17.7807 9.49999C17.7807 12.3224 15.757 16.3675 10.8953 22.6758L10.2727 23.4763L9.49999 24.4428L8.22013 22.8481C3.55434 16.7228 1.21925 12.2545 1.21925 9.49999ZM9.49999 5.18181C11.7446 5.18181 13.5642 7.0014 13.5642 9.24598C13.5642 11.4906 11.7446 13.3102 9.49999 13.3102C7.25542 13.3102 5.43583 11.4906 5.43583 9.24598C5.43583 7.0014 7.25542 5.18181 9.49999 5.18181ZM6.65508 9.24598C6.65508 7.67478 7.92879 6.40107 9.49999 6.40107C11.0712 6.40107 12.3449 7.67478 12.3449 9.24598C12.3449 10.8172 11.0712 12.0909 9.49999 12.0909C7.92879 12.0909 6.65508 10.8172 6.65508 9.24598Z" fill="#007AFF"/>
</svg>
