<svg width="16" height="24" viewBox="0 0 16 24" fill="none" xmlns="http://www.w3.org/2000/svg">
<path fill-rule="evenodd" clip-rule="evenodd" d="M8 0C10.5328 0 12.586 2.05322 12.586 4.58599V11.7197C12.586 14.2525 10.5328 16.3057 8 16.3057C5.46723 16.3057 3.41401 14.2525 3.41401 11.7197V4.58599C3.41401 2.05322 5.46723 0 8 0ZM0.611465 10.5257C0.915398 10.5257 1.16754 10.7475 1.21493 11.038L1.22293 11.1372V11.2717C1.22293 15.0832 4.25936 18.169 8 18.169C11.6611 18.169 14.6475 15.2131 14.773 11.5139L14.7771 11.2717V11.1478C14.7771 10.8101 15.0508 10.5363 15.3885 10.5363C15.6925 10.5363 15.9446 10.7581 15.992 11.0486L16 11.1478L15.9962 11.5245C15.8709 15.6831 12.6641 19.0579 8.61133 19.3686L8.61147 22.9299C8.61147 23.2676 8.3377 23.5414 8 23.5414C7.69607 23.5414 7.44393 23.3197 7.39654 23.0291L7.38854 22.9299L7.38901 19.3686C3.33869 19.0583 0.133196 15.6875 0.00404601 11.5324L0 11.1372C0 10.7995 0.273762 10.5257 0.611465 10.5257ZM4.63694 4.58599C4.63694 2.72862 6.14264 1.22293 8 1.22293C9.85737 1.22293 11.3631 2.72862 11.3631 4.58599V11.7197C11.3631 13.5771 9.85737 15.0828 8 15.0828C6.14264 15.0828 4.63694 13.5771 4.63694 11.7197V4.58599Z" fill="#007AFF"/>
</svg>
