<svg width="24" height="24" viewBox="0 0 24 24" fill="none" xmlns="http://www.w3.org/2000/svg">
<path fill-rule="evenodd" clip-rule="evenodd" d="M19.951 0.655053C19.9008 0.285124 19.5837 0 19.2 0L19.0972 0.00691869L18.9985 0.0270727C18.6777 0.115308 18.4421 0.409083 18.4421 0.757895V4.04211H15.1579L15.0551 4.04902C14.6851 4.09921 14.4 4.41631 14.4 4.8L14.4069 4.90284C14.4571 5.27277 14.7742 5.55789 15.1579 5.55789H18.4421V8.84211L18.449 8.94495C18.4992 9.31488 18.8163 9.6 19.2 9.6L19.3028 9.59308C19.6728 9.5429 19.9579 9.2258 19.9579 8.84211V5.55789H23.2421L23.3449 5.55098C23.7149 5.50079 24 5.18369 24 4.8L23.9931 4.69716C23.9429 4.32723 23.6258 4.04211 23.2421 4.04211H19.9579V0.757895L19.951 0.655053ZM6.44052 3.69261L8.26565 6.77729C8.71257 7.53266 8.71628 8.4706 8.27534 9.22948L7.71685 10.1906C7.44062 10.666 7.49367 11.2588 7.83788 11.6763L7.92246 11.7693L11.7254 15.5723C12.1142 15.9611 12.7007 16.0616 13.1924 15.8358L13.3041 15.7779L14.2653 15.2194C14.9735 14.8079 15.8378 14.7836 16.564 15.1456L16.7174 15.2291L19.8021 17.0542C21.1759 17.867 21.6306 19.6396 20.8178 21.0134C20.6725 21.259 20.4916 21.4818 20.2809 21.6744C18.7819 23.0453 17.3547 23.659 16.0014 23.4572C13.228 23.0436 10.0601 21.0938 6.46953 17.6252L6.46366 17.6295L6.16604 17.3283L5.86519 17.0311C2.40096 13.4346 0.451096 10.2668 0.0375613 7.49334C-0.164228 6.14001 0.449443 4.71279 1.82035 3.2138C2.01298 3.00318 2.23573 2.82226 2.48138 2.67692C3.85514 1.8641 5.62771 2.31884 6.44052 3.69261ZM3.09887 3.72056C2.95629 3.80492 2.82699 3.90993 2.71519 4.03218C1.55535 5.30038 1.09874 6.38771 1.23693 7.31451C1.60451 9.77974 3.41835 12.7429 6.71743 16.1684L7.09987 16.5481L7.666 17.0913C10.9538 20.1977 13.7983 21.9027 16.1802 22.2578C17.107 22.396 18.1944 21.9394 19.4626 20.7795C19.5848 20.6677 19.6898 20.5384 19.7742 20.3959C20.246 19.5985 19.982 18.5696 19.1846 18.0979L16.1378 16.2942L16.0231 16.2309C15.6592 16.0495 15.2272 16.0629 14.8745 16.2679L13.8624 16.8543L13.6985 16.9378C12.744 17.3761 11.6139 17.1757 10.8679 16.4297L7.02495 12.5848L6.90226 12.4477C6.23412 11.6373 6.13832 10.4936 6.66836 9.58142L7.22685 8.62025C7.44721 8.24101 7.44536 7.77227 7.22201 7.39478L5.39688 4.3101L5.31323 4.18217C4.8115 3.48566 3.85195 3.27498 3.09887 3.72056Z" fill="#007AFF"/>
</svg>
