<svg width="35" height="29" viewBox="0 0 35 29" fill="none" xmlns="http://www.w3.org/2000/svg">
<mask id="path-1-outside-1_0_9164" maskUnits="userSpaceOnUse" x="0" y="0" width="35" height="29" fill="black">
<rect fill="white" width="35" height="29"/>
<path fill-rule="evenodd" clip-rule="evenodd" d="M29 1C31.7614 1 34 3.23858 34 6V23C34 25.7614 31.7614 28 29 28H6C3.23858 28 1 25.7614 1 23V6C1 3.23858 3.23858 1 6 1H29ZM31.9412 21.324L26.8789 17.2817C26.5198 16.9949 26.0168 16.9925 25.6569 17.2616L25.5625 17.3417L17.5114 25.0692L13.9134 21.7283C13.5649 21.4047 13.0427 21.3747 12.6619 21.6401L12.5618 21.7198L7.833 26H29C30.6569 26 32 24.6569 32 23V21.365L31.9412 21.324ZM6 3H29C30.6569 3 32 4.34315 32 6V18.812L28.1269 15.7188L27.9708 15.6022C26.8058 14.7888 25.2156 14.9025 24.1776 15.8987L17.4886 22.3188L15.2743 20.2627L15.1286 20.1358C13.9882 19.2047 12.325 19.2362 11.2194 20.2373L5.03085 25.84C3.84957 25.437 3 24.3177 3 23V6C3 4.34315 4.34315 3 6 3Z"/>
</mask>
<path fill-rule="evenodd" clip-rule="evenodd" d="M29 1C31.7614 1 34 3.23858 34 6V23C34 25.7614 31.7614 28 29 28H6C3.23858 28 1 25.7614 1 23V6C1 3.23858 3.23858 1 6 1H29ZM31.9412 21.324L26.8789 17.2817C26.5198 16.9949 26.0168 16.9925 25.6569 17.2616L25.5625 17.3417L17.5114 25.0692L13.9134 21.7283C13.5649 21.4047 13.0427 21.3747 12.6619 21.6401L12.5618 21.7198L7.833 26H29C30.6569 26 32 24.6569 32 23V21.365L31.9412 21.324ZM6 3H29C30.6569 3 32 4.34315 32 6V18.812L28.1269 15.7188L27.9708 15.6022C26.8058 14.7888 25.2156 14.9025 24.1776 15.8987L17.4886 22.3188L15.2743 20.2627L15.1286 20.1358C13.9882 19.2047 12.325 19.2362 11.2194 20.2373L5.03085 25.84C3.84957 25.437 3 24.3177 3 23V6C3 4.34315 4.34315 3 6 3Z" fill="white"/>
<path d="M26.8789 17.2817L26.2549 18.0631L26.2549 18.0631L26.8789 17.2817ZM31.9412 21.324L31.3172 22.1055L31.3428 22.1259L31.3696 22.1446L31.9412 21.324ZM25.6569 17.2616L25.0582 16.4606L25.0335 16.479L25.01 16.499L25.6569 17.2616ZM25.5625 17.3417L24.9156 16.5791L24.8922 16.599L24.87 16.6202L25.5625 17.3417ZM17.5114 25.0692L16.8309 25.802L17.5227 26.4443L18.2038 25.7906L17.5114 25.0692ZM13.9134 21.7283L14.5939 20.9955L14.5939 20.9955L13.9134 21.7283ZM12.6619 21.6401L12.0901 20.8197L12.0639 20.838L12.039 20.8578L12.6619 21.6401ZM12.5618 21.7198L11.9389 20.9375L11.9142 20.9572L11.8907 20.9784L12.5618 21.7198ZM7.833 26L7.16194 25.2586L5.23802 27H7.833V26ZM32 21.365H33V20.8429L32.5716 20.5445L32 21.365ZM32 18.812L31.376 19.5934L33 20.8904V18.812H32ZM28.1269 15.7188L28.751 14.9374L28.7384 14.9274L28.7255 14.9178L28.1269 15.7188ZM27.9708 15.6022L28.5694 14.8011L28.5565 14.7915L28.5433 14.7822L27.9708 15.6022ZM24.1776 15.8987L24.87 16.6202V16.6202L24.1776 15.8987ZM17.4886 22.3188L16.8082 23.0516L17.5 23.694L18.1811 23.0403L17.4886 22.3188ZM15.2743 20.2627L15.9547 19.5299L15.9431 19.5191L15.9311 19.5087L15.2743 20.2627ZM15.1286 20.1358L15.7854 19.3817L15.7734 19.3713L15.761 19.3612L15.1286 20.1358ZM11.2194 20.2373L11.8906 20.9786L11.8906 20.9785L11.2194 20.2373ZM5.03085 25.84L4.70796 26.7864L5.26538 26.9766L5.702 26.5813L5.03085 25.84ZM35 6C35 2.68629 32.3137 0 29 0V2C31.2091 2 33 3.79086 33 6H35ZM35 23V6H33V23H35ZM29 29C32.3137 29 35 26.3137 35 23H33C33 25.2091 31.2091 27 29 27V29ZM6 29H29V27H6V29ZM0 23C0 26.3137 2.68629 29 6 29V27C3.79086 27 2 25.2091 2 23H0ZM0 6V23H2V6H0ZM6 0C2.68629 0 0 2.68629 0 6H2C2 3.79086 3.79086 2 6 2V0ZM29 0H6V2H29V0ZM26.2549 18.0631L31.3172 22.1055L32.5652 20.5426L27.5029 16.5003L26.2549 18.0631ZM26.2555 18.0626L26.2549 18.0631L27.5029 16.5003C26.7842 15.9264 25.7787 15.9221 25.0582 16.4606L26.2555 18.0626ZM26.2094 18.1042L26.3038 18.0241L25.01 16.499L24.9156 16.5791L26.2094 18.1042ZM18.2038 25.7906L26.2549 18.0631L24.87 16.6202L16.8189 24.3477L18.2038 25.7906ZM13.233 22.4611L16.8309 25.802L18.1918 24.3364L14.5939 20.9955L13.233 22.4611ZM13.2337 22.4605L13.233 22.4611L14.5939 20.9955C13.8965 20.348 12.8524 20.2884 12.0901 20.8197L13.2337 22.4605ZM13.1847 22.5021L13.2848 22.4224L12.039 20.8578L11.9389 20.9375L13.1847 22.5021ZM8.50406 26.7414L13.2328 22.4612L11.8907 20.9784L7.16194 25.2586L8.50406 26.7414ZM29 25H7.833V27H29V25ZM31 23C31 24.1046 30.1046 25 29 25V27C31.2091 27 33 25.2091 33 23H31ZM31 21.365V23H33V21.365H31ZM31.3696 22.1446L31.4284 22.1855L32.5716 20.5445L32.5128 20.5035L31.3696 22.1446ZM29 2H6V4H29V2ZM33 6C33 3.79086 31.2091 2 29 2V4C30.1046 4 31 4.89543 31 6H33ZM33 18.812V6H31V18.812H33ZM27.5029 16.5002L31.376 19.5934L32.624 18.0306L28.751 14.9374L27.5029 16.5002ZM27.3722 16.4032L27.5283 16.5199L28.7255 14.9178L28.5694 14.8011L27.3722 16.4032ZM24.87 16.6202C25.5618 15.9562 26.6222 15.8802 27.3983 16.4221L28.5433 14.7822C26.9894 13.6973 24.8693 13.8487 23.4851 15.1773L24.87 16.6202ZM18.1811 23.0403L24.87 16.6202L23.4851 15.1773L16.7962 21.5974L18.1811 23.0403ZM14.5939 20.9955L16.8082 23.0516L18.1691 21.586L15.9547 19.5299L14.5939 20.9955ZM14.4718 20.8898L14.6175 21.0168L15.9311 19.5087L15.7854 19.3817L14.4718 20.8898ZM11.8906 20.9785C12.6274 20.3114 13.7365 20.2901 14.4962 20.9104L15.761 19.3612C14.2399 18.1192 12.0225 18.1611 10.5482 19.496L11.8906 20.9785ZM5.702 26.5813L11.8906 20.9786L10.5483 19.4959L4.3597 25.0987L5.702 26.5813ZM2 23C2 24.7585 3.13414 26.2495 4.70796 26.7864L5.35373 24.8936C4.565 24.6245 4 23.8769 4 23H2ZM2 6V23H4V6H2ZM6 2C3.79086 2 2 3.79086 2 6H4C4 4.89543 4.89543 4 6 4V2Z" fill="black" fill-opacity="0.2" mask="url(#path-1-outside-1_0_9164)"/>
<path fill-rule="evenodd" clip-rule="evenodd" d="M10.5 13.25C12.0188 13.25 13.25 12.0188 13.25 10.5C13.25 8.98122 12.0188 7.75 10.5 7.75C8.98122 7.75 7.75 8.98122 7.75 10.5C7.75 12.0188 8.98122 13.25 10.5 13.25Z" fill="white"/>
<path d="M10.5 7.25C12.2949 7.25 13.75 8.70507 13.75 10.5C13.75 12.2949 12.2949 13.75 10.5 13.75C8.70507 13.75 7.25 12.2949 7.25 10.5C7.25 8.70507 8.70507 7.25 10.5 7.25Z" stroke="black" stroke-opacity="0.2"/>
</svg>
