<svg width="25" height="6" viewBox="0 0 25 6" fill="none" xmlns="http://www.w3.org/2000/svg">
<path fill-rule="evenodd" clip-rule="evenodd" d="M2.75 0C4.26878 0 5.5 1.23122 5.5 2.75C5.5 4.26878 4.26878 5.5 2.75 5.5C1.23122 5.5 0 4.26878 0 2.75C0 1.23122 1.23122 0 2.75 0ZM12.5 0C14.0188 0 15.25 1.23122 15.25 2.75C15.25 4.26878 14.0188 5.5 12.5 5.5C10.9812 5.5 9.75 4.26878 9.75 2.75C9.75 1.23122 10.9812 0 12.5 0ZM22.25 0C23.7688 0 25 1.23122 25 2.75C25 4.26878 23.7688 5.5 22.25 5.5C20.7312 5.5 19.5 4.26878 19.5 2.75C19.5 1.23122 20.7312 0 22.25 0Z" fill="white"/>
</svg>
