<svg width="21" height="21" viewBox="0 0 21 21" fill="none" xmlns="http://www.w3.org/2000/svg">
<path fill-rule="evenodd" clip-rule="evenodd" d="M20.3913 6.08696V18.5652C20.3913 19.6858 19.4829 20.5942 18.3623 20.5942H2.63768C1.5171 20.5942 0.608696 19.6858 0.608696 18.5652V6.08696H20.3913ZM14 8.31884H6.89855C6.64953 8.31884 6.44243 8.49828 6.39948 8.73491L6.39131 8.82609V10.3478C6.39131 10.5968 6.57074 10.804 6.80737 10.8469L6.89855 10.8551H14C14.249 10.8551 14.4561 10.6756 14.4991 10.439L14.5072 10.3478V8.82609C14.5072 8.54594 14.2801 8.31884 14 8.31884ZM18.971 0C20.0916 0 21 0.908408 21 2.02899V5.07246H0V2.02899C0 0.908408 0.908408 0 2.02899 0H18.971Z" fill="white"/>
</svg>
