<svg width="37" height="32" viewBox="0 0 37 32" fill="none" xmlns="http://www.w3.org/2000/svg">
<mask id="path-1-outside-1_0_9170" maskUnits="userSpaceOnUse" x="0" y="0" width="37" height="32" fill="black">
<rect fill="white" width="37" height="32"/>
<path fill-rule="evenodd" clip-rule="evenodd" d="M24.0211 2.04788C23.2838 1.3738 22.321 1 21.322 1H15.678C14.679 1 13.7162 1.3738 12.9789 2.04788L10.8961 3.95212C10.1588 4.6262 9.19603 5 8.19705 5H7C3.68629 5 1 7.68629 1 11V24.75C1 28.0637 3.68629 30.75 7 30.75H30C33.3137 30.75 36 28.0637 36 24.75V11C36 7.68629 33.3137 5 30 5H28.803C27.804 5 26.8412 4.6262 26.1039 3.95212L24.0211 2.04788ZM15.678 3H21.322C21.8215 3 22.3029 3.1869 22.6716 3.52394L24.7543 5.42817C25.8603 6.43929 27.3045 7 28.803 7H30C32.2091 7 34 8.79086 34 11V24.75C34 26.9591 32.2091 28.75 30 28.75H7C4.79086 28.75 3 26.9591 3 24.75V11C3 8.79086 4.79086 7 7 7H8.19705C9.69552 7 11.1397 6.43929 12.2457 5.42817L14.3284 3.52394C14.6971 3.1869 15.1785 3 15.678 3ZM12.2964 13.0317C12.3497 13.0677 12.3956 13.1136 12.4315 13.1669L14.2634 15.8846C14.4178 16.1136 14.3573 16.4243 14.1283 16.5786C14.0457 16.6343 13.9484 16.664 13.8488 16.664L12.7694 16.6646C13.0119 19.7982 15.5021 22.25 18.5221 22.25C19.6217 22.25 20.6746 21.9258 21.5859 21.3223C21.9313 21.0937 22.3966 21.1882 22.6253 21.5336C22.854 21.879 22.7594 22.3443 22.4141 22.573C21.2598 23.3373 19.9195 23.75 18.5221 23.75C14.66 23.75 11.5132 20.6141 11.2657 16.6641L10.185 16.664C9.90887 16.664 9.68501 16.4402 9.68501 16.164C9.68501 16.0645 9.71474 15.9671 9.7704 15.8846L11.6023 13.1669C11.7567 12.9379 12.0674 12.8774 12.2964 13.0317ZM25.6543 16.1884C25.4068 12.2384 22.26 9.1025 18.3979 9.1025C17.0005 9.1025 15.6602 9.51517 14.5059 10.2795C14.1606 10.5082 14.066 10.9735 14.2947 11.3189C14.5234 11.6643 14.9887 11.7588 15.3341 11.5302C16.2454 10.9267 17.2983 10.6025 18.3979 10.6025C21.4179 10.6025 23.9081 13.0543 24.1506 16.1879L23.0712 16.1885C22.9716 16.1885 22.8743 16.2182 22.7917 16.2738C22.5627 16.4282 22.5022 16.7389 22.6566 16.9679L24.4885 19.6856C24.5244 19.7389 24.5703 19.7848 24.6236 19.8208C24.8526 19.9751 25.1633 19.9146 25.3177 19.6856L27.1496 16.9679C27.2053 16.8853 27.235 16.788 27.235 16.6885C27.235 16.4123 27.0111 16.1885 26.735 16.1885L25.6543 16.1884Z"/>
</mask>
<path fill-rule="evenodd" clip-rule="evenodd" d="M24.0211 2.04788C23.2838 1.3738 22.321 1 21.322 1H15.678C14.679 1 13.7162 1.3738 12.9789 2.04788L10.8961 3.95212C10.1588 4.6262 9.19603 5 8.19705 5H7C3.68629 5 1 7.68629 1 11V24.75C1 28.0637 3.68629 30.75 7 30.75H30C33.3137 30.75 36 28.0637 36 24.75V11C36 7.68629 33.3137 5 30 5H28.803C27.804 5 26.8412 4.6262 26.1039 3.95212L24.0211 2.04788ZM15.678 3H21.322C21.8215 3 22.3029 3.1869 22.6716 3.52394L24.7543 5.42817C25.8603 6.43929 27.3045 7 28.803 7H30C32.2091 7 34 8.79086 34 11V24.75C34 26.9591 32.2091 28.75 30 28.75H7C4.79086 28.75 3 26.9591 3 24.75V11C3 8.79086 4.79086 7 7 7H8.19705C9.69552 7 11.1397 6.43929 12.2457 5.42817L14.3284 3.52394C14.6971 3.1869 15.1785 3 15.678 3ZM12.2964 13.0317C12.3497 13.0677 12.3956 13.1136 12.4315 13.1669L14.2634 15.8846C14.4178 16.1136 14.3573 16.4243 14.1283 16.5786C14.0457 16.6343 13.9484 16.664 13.8488 16.664L12.7694 16.6646C13.0119 19.7982 15.5021 22.25 18.5221 22.25C19.6217 22.25 20.6746 21.9258 21.5859 21.3223C21.9313 21.0937 22.3966 21.1882 22.6253 21.5336C22.854 21.879 22.7594 22.3443 22.4141 22.573C21.2598 23.3373 19.9195 23.75 18.5221 23.75C14.66 23.75 11.5132 20.6141 11.2657 16.6641L10.185 16.664C9.90887 16.664 9.68501 16.4402 9.68501 16.164C9.68501 16.0645 9.71474 15.9671 9.7704 15.8846L11.6023 13.1669C11.7567 12.9379 12.0674 12.8774 12.2964 13.0317ZM25.6543 16.1884C25.4068 12.2384 22.26 9.1025 18.3979 9.1025C17.0005 9.1025 15.6602 9.51517 14.5059 10.2795C14.1606 10.5082 14.066 10.9735 14.2947 11.3189C14.5234 11.6643 14.9887 11.7588 15.3341 11.5302C16.2454 10.9267 17.2983 10.6025 18.3979 10.6025C21.4179 10.6025 23.9081 13.0543 24.1506 16.1879L23.0712 16.1885C22.9716 16.1885 22.8743 16.2182 22.7917 16.2738C22.5627 16.4282 22.5022 16.7389 22.6566 16.9679L24.4885 19.6856C24.5244 19.7389 24.5703 19.7848 24.6236 19.8208C24.8526 19.9751 25.1633 19.9146 25.3177 19.6856L27.1496 16.9679C27.2053 16.8853 27.235 16.788 27.235 16.6885C27.235 16.4123 27.0111 16.1885 26.735 16.1885L25.6543 16.1884Z" fill="white"/>
<path d="M24.0211 2.04788L24.6959 1.30986V1.30986L24.0211 2.04788ZM12.9789 2.04788L13.6536 2.78591V2.78591L12.9789 2.04788ZM10.8961 3.95212L10.2214 3.21409V3.21409L10.8961 3.95212ZM26.1039 3.95212L25.4291 4.69014V4.69014L26.1039 3.95212ZM22.6716 3.52394L21.9968 4.26197L21.9968 4.26197L22.6716 3.52394ZM24.7543 5.42817L24.0796 6.1662V6.1662L24.7543 5.42817ZM12.2457 5.42817L12.9204 6.1662H12.9204L12.2457 5.42817ZM14.3284 3.52394L13.6536 2.78591L13.6536 2.78591L14.3284 3.52394ZM12.4315 13.1669L11.6023 13.7258L11.6023 13.7258L12.4315 13.1669ZM12.2964 13.0317L11.7375 13.8609L11.7375 13.8609L12.2964 13.0317ZM14.2634 15.8846L15.0927 15.3256L15.0927 15.3256L14.2634 15.8846ZM14.1283 16.5786L14.6873 17.4079L14.6873 17.4079L14.1283 16.5786ZM13.8488 16.664V15.664H13.8484L13.8488 16.664ZM12.7694 16.6646L12.7689 15.6646L11.689 15.6651L11.7723 16.7417L12.7694 16.6646ZM21.5859 21.3223L22.138 22.1561H22.138L21.5859 21.3223ZM22.4141 22.573L21.862 21.7392L21.862 21.7392L22.4141 22.573ZM11.2657 16.6641L12.2637 16.6015L12.205 15.6641L11.2657 15.6641L11.2657 16.6641ZM10.185 16.664L10.185 15.664H10.185V16.664ZM9.7704 15.8846L10.5996 16.4435V16.4435L9.7704 15.8846ZM11.6023 13.1669L12.4315 13.7258L12.4315 13.7258L11.6023 13.1669ZM25.6543 16.1884L24.6563 16.251L24.715 17.1884L25.6543 17.1884L25.6543 16.1884ZM14.5059 10.2795L15.058 11.1133L15.058 11.1133L14.5059 10.2795ZM14.2947 11.3189L13.4609 11.871L13.4609 11.871L14.2947 11.3189ZM15.3341 11.5302L14.782 10.6964V10.6964L15.3341 11.5302ZM24.1506 16.1879L24.1511 17.1879L25.231 17.1874L25.1477 16.1108L24.1506 16.1879ZM23.0712 16.1885V17.1885H23.0716L23.0712 16.1885ZM22.7917 16.2738L23.3506 17.1031L23.3506 17.1031L22.7917 16.2738ZM22.6566 16.9679L23.4858 16.409L23.4858 16.409L22.6566 16.9679ZM24.4885 19.6856L25.3177 19.1267L25.3177 19.1267L24.4885 19.6856ZM24.6236 19.8208L25.1825 18.9916L25.1825 18.9915L24.6236 19.8208ZM25.3177 19.6856L24.4885 19.1267L24.4885 19.1267L25.3177 19.6856ZM27.1496 16.9679L27.9788 17.5269L27.9788 17.5269L27.1496 16.9679ZM26.735 16.1885L26.735 17.1885H26.735V16.1885ZM21.322 2C22.0713 2 22.7934 2.28035 23.3464 2.78591L24.6959 1.30986C23.7743 0.467256 22.5708 0 21.322 0V2ZM15.678 2H21.322V0H15.678V2ZM13.6536 2.78591C14.2066 2.28035 14.9287 2 15.678 2V0C14.4292 0 13.2257 0.467256 12.3041 1.30986L13.6536 2.78591ZM11.5709 4.69014L13.6536 2.78591L12.3041 1.30986L10.2214 3.21409L11.5709 4.69014ZM8.19705 6C9.44577 6 10.6493 5.53274 11.5709 4.69014L10.2214 3.21409C9.6684 3.71965 8.94628 4 8.19705 4V6ZM7 6H8.19705V4H7V6ZM2 11C2 8.23858 4.23858 6 7 6V4C3.13401 4 0 7.13401 0 11H2ZM2 24.75V11H0V24.75H2ZM7 29.75C4.23858 29.75 2 27.5114 2 24.75H0C0 28.616 3.13401 31.75 7 31.75V29.75ZM30 29.75H7V31.75H30V29.75ZM35 24.75C35 27.5114 32.7614 29.75 30 29.75V31.75C33.866 31.75 37 28.616 37 24.75H35ZM35 11V24.75H37V11H35ZM30 6C32.7614 6 35 8.23858 35 11H37C37 7.13401 33.866 4 30 4V6ZM28.803 6H30V4H28.803V6ZM25.4291 4.69014C26.3507 5.53274 27.5542 6 28.803 6V4C28.0537 4 27.3316 3.71965 26.7786 3.21409L25.4291 4.69014ZM23.3464 2.78591L25.4291 4.69014L26.7786 3.21409L24.6959 1.30986L23.3464 2.78591ZM21.322 2H15.678V4H21.322V2ZM23.3464 2.78591C22.7934 2.28035 22.0713 2 21.322 2V4C21.5718 4 21.8125 4.09345 21.9968 4.26197L23.3464 2.78591ZM25.4291 4.69014L23.3464 2.78591L21.9968 4.26197L24.0796 6.1662L25.4291 4.69014ZM28.803 6C27.5542 6 26.3507 5.53274 25.4291 4.69014L24.0796 6.1662C25.3698 7.34584 27.0547 8 28.803 8V6ZM30 6H28.803V8H30V6ZM35 11C35 8.23858 32.7614 6 30 6V8C31.6569 8 33 9.34315 33 11H35ZM35 24.75V11H33V24.75H35ZM30 29.75C32.7614 29.75 35 27.5114 35 24.75H33C33 26.4069 31.6569 27.75 30 27.75V29.75ZM7 29.75H30V27.75H7V29.75ZM2 24.75C2 27.5114 4.23858 29.75 7 29.75V27.75C5.34315 27.75 4 26.4069 4 24.75H2ZM2 11V24.75H4V11H2ZM7 6C4.23858 6 2 8.23858 2 11H4C4 9.34315 5.34315 8 7 8V6ZM8.19705 6H7V8H8.19705V6ZM11.5709 4.69014C10.6493 5.53274 9.44577 6 8.19705 6V8C9.94526 8 11.6302 7.34584 12.9204 6.1662L11.5709 4.69014ZM13.6536 2.78591L11.5709 4.69014L12.9204 6.1662L15.0032 4.26197L13.6536 2.78591ZM15.678 2C14.9287 2 14.2066 2.28035 13.6536 2.78591L15.0032 4.26197C15.1875 4.09345 15.4282 4 15.678 4V2ZM13.2607 12.6079C13.1529 12.448 13.0153 12.3103 12.8553 12.2025L11.7375 13.8609C11.6841 13.825 11.6383 13.7791 11.6023 13.7258L13.2607 12.6079ZM15.0927 15.3256L13.2607 12.6079L11.6023 13.7258L13.4342 16.4435L15.0927 15.3256ZM14.6873 17.4079C15.3742 16.9448 15.5557 16.0126 15.0927 15.3256L13.4342 16.4435C13.2799 16.2145 13.3404 15.9038 13.5694 15.7494L14.6873 17.4079ZM13.8488 17.664C14.1476 17.664 14.4395 17.5748 14.6873 17.4079L13.5694 15.7494C13.6519 15.6938 13.7493 15.664 13.8488 15.664V17.664ZM12.7698 17.6646L13.8493 17.664L13.8484 15.664L12.7689 15.6646L12.7698 17.6646ZM18.5221 21.25C16.071 21.25 13.9723 19.248 13.7664 16.5874L11.7723 16.7417C12.0515 20.3484 14.9332 23.25 18.5221 23.25V21.25ZM21.0338 20.4886C20.283 20.9857 19.4215 21.25 18.5221 21.25V23.25C19.8218 23.25 21.0662 22.8659 22.138 22.1561L21.0338 20.4886ZM23.4591 20.9815C22.9255 20.1757 21.8397 19.955 21.0338 20.4886L22.138 22.1561C22.0229 22.2324 21.8678 22.2008 21.7916 22.0857L23.4591 20.9815ZM22.9662 23.4068C23.772 22.8732 23.9927 21.7873 23.4591 20.9815L21.7916 22.0857C21.7153 21.9706 21.7469 21.8155 21.862 21.7392L22.9662 23.4068ZM18.5221 24.75C20.1194 24.75 21.6511 24.2776 22.9662 23.4068L21.862 21.7392C20.8685 22.3971 19.7197 22.75 18.5221 22.75V24.75ZM10.2676 16.7266C10.5456 21.162 14.0913 24.75 18.5221 24.75V22.75C15.2286 22.75 12.4808 20.0661 12.2637 16.6015L10.2676 16.7266ZM10.185 17.664L11.2657 17.6641L11.2657 15.6641L10.185 15.664L10.185 17.664ZM8.68501 16.164C8.68501 16.9925 9.35658 17.664 10.185 17.664V15.664C10.4612 15.664 10.685 15.8879 10.685 16.164H8.68501ZM8.9412 15.3256C8.77421 15.5734 8.68501 15.8653 8.68501 16.164H10.685C10.685 16.2636 10.6553 16.3609 10.5996 16.4435L8.9412 15.3256ZM10.7731 12.6079L8.9412 15.3256L10.5996 16.4435L12.4315 13.7258L10.7731 12.6079ZM12.8553 12.2025C12.1684 11.7395 11.2362 11.921 10.7731 12.6079L12.4315 13.7258C12.2772 13.9548 11.9664 14.0153 11.7375 13.8609L12.8553 12.2025ZM18.3979 10.1025C21.6914 10.1025 24.4392 12.7864 24.6563 16.251L26.6524 16.1259C26.3744 11.6905 22.8287 8.1025 18.3979 8.1025V10.1025ZM15.058 11.1133C16.0515 10.4554 17.2003 10.1025 18.3979 10.1025V8.1025C16.8006 8.1025 15.2689 8.57493 13.9538 9.44571L15.058 11.1133ZM15.1284 10.7668C15.2047 10.8819 15.1731 11.037 15.058 11.1133L13.9538 9.44571C13.148 9.97931 12.9273 11.0652 13.4609 11.871L15.1284 10.7668ZM14.782 10.6964C14.8971 10.6201 15.0522 10.6517 15.1284 10.7668L13.4609 11.871C13.9945 12.6768 15.0803 12.8975 15.8862 12.3639L14.782 10.6964ZM18.3979 9.6025C17.0982 9.6025 15.8538 9.98664 14.782 10.6964L15.8862 12.3639C16.637 11.8668 17.4985 11.6025 18.3979 11.6025V9.6025ZM25.1477 16.1108C24.8685 12.5041 21.9868 9.6025 18.3979 9.6025V11.6025C20.849 11.6025 22.9477 13.6045 23.1536 16.2651L25.1477 16.1108ZM23.0716 17.1885L24.1511 17.1879L24.1502 15.1879L23.0707 15.1885L23.0716 17.1885ZM23.3506 17.1031C23.2681 17.1587 23.1707 17.1885 23.0712 17.1885V15.1885C22.7724 15.1885 22.4805 15.2777 22.2327 15.4446L23.3506 17.1031ZM23.4858 16.409C23.6401 16.638 23.5796 16.9487 23.3506 17.1031L22.2327 15.4446C21.5458 15.9077 21.3643 16.8399 21.8274 17.5269L23.4858 16.409ZM25.3177 19.1267L23.4858 16.409L21.8273 17.5269L23.6593 20.2446L25.3177 19.1267ZM25.1825 18.9915C25.2359 19.0275 25.2817 19.0734 25.3177 19.1267L23.6593 20.2446C23.7671 20.4045 23.9047 20.5422 24.0647 20.65L25.1825 18.9915ZM24.4885 19.1267C24.6428 18.8977 24.9536 18.8372 25.1825 18.9916L24.0647 20.65C24.7516 21.113 25.6838 20.9315 26.1469 20.2446L24.4885 19.1267ZM26.3204 16.409L24.4885 19.1267L26.1469 20.2446L27.9788 17.5269L26.3204 16.409ZM26.235 16.6885C26.235 16.5889 26.2647 16.4915 26.3204 16.409L27.9788 17.5269C28.1458 17.2791 28.235 16.9872 28.235 16.6885H26.235ZM26.735 17.1885C26.4589 17.1885 26.235 16.9646 26.235 16.6885H28.235C28.235 15.86 27.5634 15.1885 26.735 15.1885V17.1885ZM25.6543 17.1884L26.735 17.1885L26.735 15.1885L25.6544 15.1884L25.6543 17.1884Z" fill="black" fill-opacity="0.2" mask="url(#path-1-outside-1_0_9170)"/>
</svg>
