<svg width="18" height="18" viewBox="0 0 18 18" fill="none" xmlns="http://www.w3.org/2000/svg">
<path d="M0.219422 0.405039L0.306466 0.306466C0.683655 -0.0707229 1.27717 -0.0997374 1.68764 0.219422L1.78621 0.306466L8.99957 7.519L16.2138 0.306466C16.5909 -0.0707229 17.1845 -0.0997374 17.5949 0.219422L17.6935 0.306466C18.0707 0.683655 18.0997 1.27717 17.7806 1.68764L17.6935 1.78621L10.4791 8.99957L17.6935 16.2138C18.0707 16.5909 18.0997 17.1845 17.7806 17.5949L17.6935 17.6935C17.3163 18.0707 16.7228 18.0997 16.3123 17.7806L16.2138 17.6935L8.99957 10.4791L1.78621 17.6935C1.40903 18.0707 0.815509 18.0997 0.405039 17.7806L0.306466 17.6935C-0.0707229 17.3163 -0.0997374 16.7228 0.219422 16.3123L0.306466 16.2138L7.519 8.99957L0.306466 1.78621C-0.0707229 1.40903 -0.0997374 0.815509 0.219422 0.405039L0.306466 0.306466L0.219422 0.405039Z" fill="white"/>
</svg>
