<svg width="24" height="27" viewBox="0 0 24 27" fill="none" xmlns="http://www.w3.org/2000/svg">
<path fill-rule="evenodd" clip-rule="evenodd" d="M18.3302 15.8439C21.4109 15.8439 23.9083 18.3413 23.9083 21.4219C23.9083 24.5026 21.4109 27 18.3302 27C15.2495 27 12.7522 24.5026 12.7522 21.4219C12.7522 18.3413 15.2495 15.8439 18.3302 15.8439ZM19.2255 18.3789C19.1977 18.2963 19.1203 18.2407 19.0332 18.2407H17.5462C17.459 18.2407 17.3816 18.2964 17.3538 18.3791L15.5725 23.6901C15.5284 23.8215 15.6262 23.9574 15.7648 23.9574H16.773C16.863 23.9574 16.9423 23.8981 16.9676 23.8117L17.2505 22.8473C17.2759 22.7609 17.3551 22.7016 17.4452 22.7016H19.006C19.0967 22.7016 19.1763 22.7618 19.2011 22.849L19.4739 23.81C19.4987 23.8972 19.5784 23.9574 19.6691 23.9574H20.8183C20.957 23.9574 21.0547 23.8214 21.0106 23.69L19.2255 18.3789ZM11.2368 0.0773201C11.7173 0.27644 11.9635 0.802242 11.8245 1.29064L11.7855 1.40252L8.53138 9.25145L13.8672 9.25165C14.0586 9.25165 14.245 9.30576 14.4055 9.40632L14.5208 9.49034C14.9161 9.82353 14.9931 10.3943 14.7187 10.8171L14.6427 10.9194L4.54683 22.8987C4.26206 23.2366 3.79128 23.3512 3.38305 23.182C2.90256 22.9829 2.65644 22.4571 2.79542 21.9687L2.8344 21.8568L6.21496 13.6967L1.01421 13.6974C0.822861 13.6974 0.636435 13.6433 0.475874 13.5427L0.360631 13.4587C-0.0347244 13.1255 -0.111649 12.5547 0.162764 12.132L0.238705 12.0296L10.0731 0.360662C10.3578 0.0227645 10.8286 -0.0918545 11.2368 0.0773201ZM18.2718 19.5283L18.8111 21.3966C18.8485 21.5263 18.7512 21.6557 18.6162 21.6557H17.8417C17.7063 21.6557 17.6089 21.5255 17.6471 21.3956L18.1965 19.5283H18.2718Z" fill="white"/>
</svg>
