<svg width="23" height="23" viewBox="0 0 23 23" fill="none" xmlns="http://www.w3.org/2000/svg">
<path fill-rule="evenodd" clip-rule="evenodd" d="M21.824 0.364921L21.7293 0.279393C21.24 -0.11974 20.5181 -0.0912302 20.062 0.364921L18.888 1.53885L21.4576 4.10842L22.6315 2.9345L22.7171 2.83987C23.1162 2.35051 23.0877 1.62865 22.6315 1.1725L21.824 0.364921ZM18.4351 1.99036L19.1694 2.7244C19.1694 2.7244 10.8157 11.0296 10.4064 11.4888C10.2269 11.6903 10.1748 11.9541 10.1729 12.1868C10.1701 12.532 10.4507 12.8032 10.796 12.8056C11.0395 12.8074 11.3144 12.7618 11.5076 12.5901C11.9357 12.2096 20.2706 3.82564 20.2706 3.82564L21.0046 4.55994L11.541 14.025C11.1487 14.4174 10.3243 14.6526 9.06774 14.7309L8.79187 14.7452H8.74796C8.49333 14.7344 8.28932 14.542 8.25565 14.2982L8.25123 14.2046L8.26561 13.9287C8.33824 12.762 8.5463 11.9678 8.88977 11.5461L8.97143 11.4555L18.4351 1.99036ZM15.3217 3.27286L13.7632 4.83026H2.07653C1.78982 4.83026 1.5574 5.06268 1.5574 5.34939V20.9234C1.5574 21.2101 1.78982 21.4425 2.07653 21.4425H17.6505C17.9372 21.4425 18.1696 21.2101 18.1696 20.9234V9.23457L19.727 7.67822V20.9234C19.727 22.0702 18.7973 22.9999 17.6505 22.9999H2.07653C0.929694 22.9999 0 22.0702 0 20.9234V5.34939C0 4.20255 0.929694 3.27286 2.07653 3.27286H15.3217Z" fill="#007AFF"/>
</svg>
