<svg width="25" height="16" viewBox="0 0 25 16" fill="none" xmlns="http://www.w3.org/2000/svg">
<path fill-rule="evenodd" clip-rule="evenodd" d="M17.3469 4.08163C17.3469 1.82741 15.5195 0 13.2653 0H4.08163C1.82741 0 0 1.82741 0 4.08163V11.7347C0 13.9889 1.82741 15.8163 4.08163 15.8163H13.2653C15.5195 15.8163 17.3469 13.9889 17.3469 11.7347V4.08163ZM4.08163 1.22449H13.2653C14.8433 1.22449 16.1224 2.50368 16.1224 4.08163V11.7347C16.1224 13.3127 14.8433 14.5918 13.2653 14.5918H4.08163C2.50368 14.5918 1.22449 13.3127 1.22449 11.7347V4.08163C1.22449 2.50368 2.50368 1.22449 4.08163 1.22449ZM24.7884 1.96036C24.9256 2.13874 25 2.35747 25 2.58251V12.9698C25 13.5334 24.5431 13.9902 23.9796 13.9902C23.7908 13.9902 23.6056 13.9378 23.4448 13.8389L19.3386 11.312C18.735 10.9405 18.3673 10.2826 18.3673 9.57389V6.61715C18.3673 5.98354 18.6616 5.38586 19.1639 4.99955L23.3574 1.77371C23.8041 1.43011 24.4448 1.51367 24.7884 1.96036ZM19.9104 5.97011L23.7755 2.99698V12.6046L19.9803 10.2691C19.7389 10.1205 19.5918 9.85737 19.5918 9.57389V6.61715C19.5918 6.3637 19.7096 6.12463 19.9104 5.97011Z" fill="#007AFF"/>
</svg>
